<?xml version="1.0" encoding="UTF-8"?>
<svg id="Capa_2" data-name="Capa 2" xmlns="http://www.w3.org/2000/svg" viewBox="0 0 226.15 232.86">
  <defs>
    <style>
      .cls-1 {
        fill: #4097a3;
      }

      .cls-2 {
        fill: #135677;
      }

      .cls-3 {
        fill: #082f56;
      }

      .cls-4 {
        fill: #30598c;
      }
    </style>
  </defs>
  <g id="Capa_1-2" data-name="Capa 1">
    <g>
      <path class="cls-3" d="M21.94,0h61.5c12.11,0,21.94,9.83,21.94,21.94v88.32H21.94c-12.11,0-21.94-9.83-21.94-21.94V21.94C0,9.83,9.83,0,21.94,0Z"/>
      <path class="cls-4" d="M142.71,0h61.5c12.11,0,21.94,9.83,21.94,21.94v66.38c0,12.11-9.83,21.94-21.94,21.94h-83.44V21.94c0-12.11,9.83-21.94,21.94-21.94Z"/>
      <path class="cls-2" d="M21.94,122.6h83.44v88.32c0,12.11-9.83,21.94-21.94,21.94H21.94c-12.11,0-21.94-9.83-21.94-21.94v-66.38c0-12.11,9.83-21.94,21.94-21.94Z"/>
      <path class="cls-1" d="M120.77,122.6h83.44c12.11,0,21.94,9.83,21.94,21.94v66.38c0,12.11-9.83,21.94-21.94,21.94h-61.5c-12.11,0-21.94-9.83-21.94-21.94v-88.32h0Z"/>
    </g>
  </g>
</svg>