<?xml version="1.0" encoding="UTF-8"?>
<svg id="Capa_2" data-name="Capa 2" xmlns="http://www.w3.org/2000/svg" viewBox="0 0 505.72 107.11">
  <defs>
    <style>
      .cls-1 {
        fill: #4097a3;
      }

      .cls-2 {
        fill: #135677;
      }

      .cls-3 {
        fill: #082f56;
      }

      .cls-4 {
        fill: #30598c;
      }
    </style>
  </defs>
  <g id="Capa_1-2" data-name="Capa 1">
    <g>
      <g>
        <path class="cls-3" d="M10.09,0h28.29c5.57,0,10.09,4.52,10.09,10.09v40.62H10.09c-5.57,0-10.09-4.52-10.09-10.09V10.09C0,4.52,4.52,0,10.09,0Z"/>
        <path class="cls-4" d="M65.64,0h28.29c5.57,0,10.09,4.52,10.09,10.09v30.53c0,5.57-4.52,10.09-10.09,10.09h-38.38V10.09c0-5.57,4.52-10.09,10.09-10.09Z"/>
        <path class="cls-2" d="M10.09,56.39h38.38v40.62c0,5.57-4.52,10.09-10.09,10.09H10.09c-5.57,0-10.09-4.52-10.09-10.09v-30.53c0-5.57,4.52-10.09,10.09-10.09Z"/>
        <path class="cls-1" d="M55.55,56.39h38.38c5.57,0,10.09,4.52,10.09,10.09v30.53c0,5.57-4.52,10.09-10.09,10.09h-28.29c-5.57,0-10.09-4.52-10.09-10.09v-40.62h0Z"/>
      </g>
      <g>
        <path class="cls-3" d="M140.33,32.42c0-15.78,12.12-27.08,28.42-27.08,9.05,0,16.6,3.29,21.54,9.28l-7.78,7.18c-3.52-4.04-7.93-6.13-13.17-6.13-9.8,0-16.75,6.88-16.75,16.75s6.96,16.75,16.75,16.75c5.24,0,9.65-2.09,13.17-6.21l7.78,7.18c-4.94,6.06-12.49,9.35-21.62,9.35-16.23,0-28.35-11.29-28.35-27.08Z"/>
        <path class="cls-3" d="M231.81,58.6l-10.1-14.59h-11.15v14.59h-12.12V6.24h22.66c13.99,0,22.74,7.25,22.74,19,0,7.85-3.96,13.61-10.77,16.53l11.74,16.83h-13.01ZM220.44,16.12h-9.87v18.25h9.87c7.4,0,11.14-3.44,11.14-9.13s-3.74-9.12-11.14-9.12Z"/>
        <path class="cls-3" d="M253.42,6.24h12.12v52.36h-12.12V6.24Z"/>
        <path class="cls-3" d="M288.8,16.12h-16.75V6.24h45.63v9.87h-16.75v42.49h-12.12V16.12Z"/>
        <path class="cls-3" d="M364.72,48.88v9.72h-40.54V6.24h39.57v9.72h-27.53v11.37h24.31v9.42h-24.31v12.12h28.5Z"/>
        <path class="cls-3" d="M407.73,58.6l-10.1-14.59h-11.14v14.59h-12.12V6.24h22.66c13.99,0,22.74,7.25,22.74,19,0,7.85-3.96,13.61-10.77,16.53l11.74,16.83h-13.02ZM396.36,16.12h-9.87v18.25h9.87c7.41,0,11.15-3.44,11.15-9.13s-3.74-9.12-11.15-9.12Z"/>
        <path class="cls-3" d="M429.35,6.24h12.12v52.36h-12.12V6.24Z"/>
        <path class="cls-3" d="M488.36,47.38h-24.31l-4.64,11.22h-12.42l23.34-52.36h11.97l23.41,52.36h-12.72l-4.64-11.22ZM484.55,38.18l-8.3-20.05-8.3,20.05h16.61Z"/>
      </g>
      <g>
        <path class="cls-1" d="M140.33,90.74c0-4.54,3.47-7.86,8.15-7.86,2.37,0,4.44.81,5.84,2.39l-1.43,1.38c-1.19-1.25-2.64-1.82-4.33-1.82-3.47,0-6.04,2.5-6.04,5.91s2.57,5.91,6.04,5.91c1.69,0,3.14-.59,4.33-1.84l1.43,1.38c-1.41,1.58-3.47,2.42-5.86,2.42-4.65,0-8.12-3.32-8.12-7.86Z"/>
        <path class="cls-1" d="M157.76,90.74c0-4.5,3.47-7.86,8.19-7.86s8.15,3.34,8.15,7.86-3.47,7.86-8.15,7.86-8.19-3.36-8.19-7.86ZM171.9,90.74c0-3.4-2.55-5.91-5.95-5.91s-5.99,2.5-5.99,5.91,2.55,5.91,5.99,5.91,5.95-2.5,5.95-5.91Z"/>
        <path class="cls-1" d="M192.56,83.06v15.37h-1.8l-9.22-11.46v11.46h-2.2v-15.37h1.8l9.22,11.46v-11.46h2.2Z"/>
        <path class="cls-1" d="M197.65,96.67l.81-1.71c1.14,1.03,3.1,1.78,5.07,1.78,2.66,0,3.8-1.03,3.8-2.37,0-3.75-9.31-1.38-9.31-7.09,0-2.37,1.84-4.39,5.88-4.39,1.8,0,3.67.48,4.94,1.36l-.72,1.76c-1.34-.86-2.85-1.25-4.22-1.25-2.61,0-3.73,1.1-3.73,2.44,0,3.75,9.31,1.41,9.31,7.05,0,2.35-1.89,4.37-5.95,4.37-2.35,0-4.65-.79-5.88-1.93Z"/>
        <path class="cls-1" d="M214.44,91.8v-8.74h2.2v8.65c0,3.4,1.56,4.94,4.33,4.94s4.35-1.54,4.35-4.94v-8.65h2.13v8.74c0,4.46-2.44,6.81-6.5,6.81s-6.5-2.35-6.5-6.81Z"/>
        <path class="cls-1" d="M233.82,83.06h2.2v13.46h8.32v1.91h-10.52v-15.37Z"/>
        <path class="cls-1" d="M250.38,84.97h-5.27v-1.91h12.71v1.91h-5.27v13.46h-2.17v-13.46Z"/>
        <path class="cls-1" d="M260.63,90.74c0-4.5,3.47-7.86,8.19-7.86s8.15,3.34,8.15,7.86-3.47,7.86-8.15,7.86-8.19-3.36-8.19-7.86ZM274.77,90.74c0-3.4-2.55-5.91-5.95-5.91s-5.99,2.5-5.99,5.91,2.55,5.91,5.99,5.91,5.95-2.5,5.95-5.91Z"/>
        <path class="cls-1" d="M292.48,98.43l-3.32-4.72c-.31.02-.64.04-.97.04h-3.8v4.68h-2.2v-15.37h5.99c4,0,6.41,2.02,6.41,5.36,0,2.37-1.23,4.08-3.38,4.85l3.64,5.16h-2.39ZM292.42,88.42c0-2.2-1.47-3.45-4.28-3.45h-3.73v6.92h3.73c2.81,0,4.28-1.27,4.28-3.47Z"/>
        <path class="cls-1" d="M309.85,94.59h-8.17l-1.69,3.84h-2.26l6.96-15.37h2.17l6.98,15.37h-2.31l-1.69-3.84ZM309.08,92.83l-3.32-7.53-3.32,7.53h6.63Z"/>
        <path class="cls-1" d="M336.96,96.52v1.91h-11.15v-15.37h10.85v1.91h-8.65v4.72h7.71v1.87h-7.71v4.96h8.96Z"/>
        <path class="cls-1" d="M356.65,98.43l-.02-11.2-5.56,9.33h-1.01l-5.56-9.27v11.13h-2.11v-15.37h1.8l6.41,10.8,6.32-10.8h1.8l.02,15.37h-2.11Z"/>
        <path class="cls-1" d="M377.66,88.42c0,3.34-2.42,5.36-6.41,5.36h-3.8v4.66h-2.2v-15.37h5.99c4,0,6.41,2.02,6.41,5.36ZM375.46,88.42c0-2.2-1.47-3.45-4.28-3.45h-3.73v6.89h3.73c2.81,0,4.28-1.25,4.28-3.45Z"/>
        <path class="cls-1" d="M393.04,98.43l-3.32-4.72c-.31.02-.64.04-.97.04h-3.8v4.68h-2.2v-15.37h5.99c4,0,6.41,2.02,6.41,5.36,0,2.37-1.23,4.08-3.38,4.85l3.64,5.16h-2.39ZM392.98,88.42c0-2.2-1.47-3.45-4.28-3.45h-3.73v6.92h3.73c2.81,0,4.28-1.27,4.28-3.47Z"/>
        <path class="cls-1" d="M411.77,96.52v1.91h-11.15v-15.37h10.85v1.91h-8.65v4.72h7.71v1.87h-7.71v4.96h8.96Z"/>
        <path class="cls-1" d="M415.8,96.67l.81-1.71c1.14,1.03,3.1,1.78,5.07,1.78,2.66,0,3.8-1.03,3.8-2.37,0-3.75-9.31-1.38-9.31-7.09,0-2.37,1.84-4.39,5.88-4.39,1.8,0,3.67.48,4.94,1.36l-.72,1.76c-1.34-.86-2.85-1.25-4.22-1.25-2.61,0-3.73,1.1-3.73,2.44,0,3.75,9.31,1.41,9.31,7.05,0,2.35-1.89,4.37-5.95,4.37-2.35,0-4.66-.79-5.88-1.93Z"/>
        <path class="cls-1" d="M442.52,94.59h-8.17l-1.69,3.84h-2.26l6.96-15.37h2.17l6.98,15.37h-2.31l-1.69-3.84ZM441.75,92.83l-3.32-7.53-3.32,7.53h6.63Z"/>
        <path class="cls-1" d="M460.96,98.43l-3.32-4.72c-.31.02-.64.04-.97.04h-3.8v4.68h-2.2v-15.37h5.99c4,0,6.41,2.02,6.41,5.36,0,2.37-1.23,4.08-3.38,4.85l3.64,5.16h-2.39ZM460.89,88.42c0-2.2-1.47-3.45-4.28-3.45h-3.73v6.92h3.73c2.81,0,4.28-1.27,4.28-3.47Z"/>
        <path class="cls-1" d="M468.53,83.06h2.2v15.37h-2.2v-15.37Z"/>
        <path class="cls-1" d="M487.02,94.59h-8.17l-1.69,3.84h-2.26l6.96-15.37h2.17l6.98,15.37h-2.31l-1.69-3.84ZM486.25,92.83l-3.32-7.53-3.32,7.53h6.63Z"/>
        <path class="cls-1" d="M495.18,83.06h2.2v13.46h8.32v1.91h-10.52v-15.37Z"/>
      </g>
    </g>
  </g>
</svg>