<?xml version="1.0" encoding="UTF-8"?>
<svg id="Capa_2" data-name="Capa 2" xmlns="http://www.w3.org/2000/svg" viewBox="0 0 509.32 107.11">
  <defs>
    <style>
      .cls-1 {
        fill: #4097a3;
      }

      .cls-2 {
        fill: #135677;
      }

      .cls-3 {
        fill: #082f56;
      }

      .cls-4 {
        fill: #30598c;
      }
    </style>
  </defs>
  <g id="Capa_1-2" data-name="Capa 1">
    <g>
      <g>
        <path class="cls-3" d="M10.09,0h28.29c5.57,0,10.09,4.52,10.09,10.09v40.62H10.09c-5.57,0-10.09-4.52-10.09-10.09V10.09C0,4.52,4.52,0,10.09,0Z"/>
        <path class="cls-4" d="M65.64,0h28.29c5.57,0,10.09,4.52,10.09,10.09v30.53c0,5.57-4.52,10.09-10.09,10.09h-38.38V10.09c0-5.57,4.52-10.09,10.09-10.09Z"/>
        <path class="cls-2" d="M10.09,56.39h38.38v40.62c0,5.57-4.52,10.09-10.09,10.09H10.09c-5.57,0-10.09-4.52-10.09-10.09v-30.53c0-5.57,4.52-10.09,10.09-10.09Z"/>
        <path class="cls-1" d="M93.93,107.11h-28.29c-5.57,0-10.09-4.52-10.09-10.09v-40.62h38.38c5.57,0,10.09,4.52,10.09,10.09v30.53c0,5.57-4.52,10.09-10.09,10.09Z"/>
      </g>
      <g>
        <g>
          <path class="cls-3" d="M140.53,32.42c0-15.78,12.12-27.08,28.42-27.08,9.05,0,16.61,3.29,21.54,9.28l-7.78,7.18c-3.52-4.04-7.93-6.13-13.16-6.13-9.8,0-16.75,6.88-16.75,16.75s6.96,16.75,16.75,16.75c5.24,0,9.65-2.09,13.16-6.21l7.78,7.18c-4.94,6.06-12.49,9.35-21.62,9.35-16.23,0-28.35-11.29-28.35-27.08Z"/>
          <path class="cls-3" d="M232.01,58.6l-10.1-14.59h-11.14v14.59h-12.12V6.24h22.66c13.99,0,22.74,7.25,22.74,19,0,7.85-3.96,13.61-10.77,16.53l11.74,16.83h-13.02ZM220.64,16.12h-9.87v18.25h9.87c7.41,0,11.15-3.44,11.15-9.13s-3.74-9.12-11.15-9.12Z"/>
          <path class="cls-3" d="M253.63,6.24h12.12v52.36h-12.12V6.24Z"/>
          <path class="cls-3" d="M289,16.12h-16.75V6.24h45.63v9.87h-16.75v42.49h-12.12V16.12Z"/>
          <path class="cls-3" d="M364.93,48.88v9.72h-40.54V6.24h39.57v9.72h-27.53v11.37h24.31v9.42h-24.31v12.12h28.5Z"/>
          <path class="cls-3" d="M407.93,58.6l-10.1-14.59h-11.15v14.59h-12.12V6.24h22.66c13.99,0,22.74,7.25,22.74,19,0,7.85-3.96,13.61-10.77,16.53l11.74,16.83h-13.01ZM396.57,16.12h-9.87v18.25h9.87c7.4,0,11.14-3.44,11.14-9.13s-3.74-9.12-11.14-9.12Z"/>
          <path class="cls-3" d="M429.55,6.24h12.12v52.36h-12.12V6.24Z"/>
          <path class="cls-3" d="M488.57,47.38h-24.31l-4.64,11.22h-12.42l23.34-52.36h11.97l23.41,52.36h-12.72l-4.64-11.22ZM484.75,38.18l-8.3-20.05-8.3,20.05h16.61Z"/>
        </g>
        <g>
          <path class="cls-1" d="M136.88,90.81c0-4.52,3.45-7.82,8.11-7.82,2.36,0,4.41.81,5.81,2.38l-1.42,1.38c-1.18-1.25-2.62-1.81-4.3-1.81-3.45,0-6.01,2.49-6.01,5.88s2.56,5.88,6.01,5.88c1.68,0,3.12-.59,4.3-1.83l1.42,1.38c-1.4,1.57-3.45,2.4-5.83,2.4-4.63,0-8.08-3.3-8.08-7.82Z"/>
          <path class="cls-1" d="M154.23,90.81c0-4.48,3.45-7.82,8.15-7.82s8.11,3.32,8.11,7.82-3.45,7.82-8.11,7.82-8.15-3.34-8.15-7.82ZM168.3,90.81c0-3.39-2.53-5.88-5.92-5.88s-5.97,2.49-5.97,5.88,2.53,5.88,5.97,5.88,5.92-2.49,5.92-5.88Z"/>
          <path class="cls-1" d="M188.87,83.16v15.3h-1.79l-9.18-11.41v11.41h-2.19v-15.3h1.79l9.18,11.41v-11.41h2.19Z"/>
          <path class="cls-1" d="M193.95,96.71l.81-1.7c1.14,1.03,3.08,1.77,5.05,1.77,2.64,0,3.78-1.03,3.78-2.36,0-3.74-9.26-1.38-9.26-7.06,0-2.36,1.84-4.37,5.86-4.37,1.79,0,3.65.48,4.92,1.36l-.72,1.75c-1.33-.85-2.84-1.25-4.2-1.25-2.6,0-3.71,1.09-3.71,2.43,0,3.74,9.26,1.4,9.26,7.01,0,2.34-1.88,4.35-5.92,4.35-2.34,0-4.63-.79-5.86-1.92Z"/>
          <path class="cls-1" d="M210.67,91.86v-8.7h2.19v8.61c0,3.39,1.55,4.92,4.3,4.92s4.33-1.53,4.33-4.92v-8.61h2.12v8.7c0,4.44-2.43,6.77-6.47,6.77s-6.47-2.34-6.47-6.77Z"/>
          <path class="cls-1" d="M229.97,83.16h2.19v13.39h8.28v1.9h-10.47v-15.3Z"/>
          <path class="cls-1" d="M246.45,85.06h-5.24v-1.9h12.65v1.9h-5.24v13.39h-2.16v-13.39Z"/>
          <path class="cls-1" d="M256.66,90.81c0-4.48,3.45-7.82,8.15-7.82s8.11,3.32,8.11,7.82-3.45,7.82-8.11,7.82-8.15-3.34-8.15-7.82ZM270.73,90.81c0-3.39-2.53-5.88-5.92-5.88s-5.97,2.49-5.97,5.88,2.53,5.88,5.97,5.88,5.92-2.49,5.92-5.88Z"/>
          <path class="cls-1" d="M288.37,98.45l-3.3-4.7c-.31.02-.63.04-.96.04h-3.78v4.65h-2.19v-15.3h5.97c3.98,0,6.38,2.01,6.38,5.33,0,2.36-1.22,4.06-3.36,4.83l3.63,5.13h-2.38ZM288.3,88.49c0-2.19-1.46-3.43-4.26-3.43h-3.71v6.88h3.71c2.8,0,4.26-1.27,4.26-3.45Z"/>
          <path class="cls-1" d="M298.34,79.07h2.67l-3.67,2.84h-1.97l2.97-2.84ZM295.91,83.16h2.19v15.3h-2.19v-15.3Z"/>
          <path class="cls-1" d="M314.31,94.63h-8.13l-1.68,3.82h-2.25l6.93-15.3h2.16l6.95,15.3h-2.29l-1.68-3.82ZM313.55,92.88l-3.3-7.49-3.3,7.49h6.6Z"/>
          <path class="cls-1" d="M341.31,96.55v1.9h-11.1v-15.3h10.79v1.9h-8.61v4.7h7.67v1.86h-7.67v4.94h8.92Z"/>
          <path class="cls-1" d="M360.91,98.45l-.02-11.14-5.53,9.29h-1.01l-5.53-9.22v11.08h-2.1v-15.3h1.79l6.38,10.75,6.29-10.75h1.79l.02,15.3h-2.1Z"/>
          <path class="cls-1" d="M381.83,88.49c0,3.32-2.4,5.33-6.38,5.33h-3.78v4.63h-2.19v-15.3h5.97c3.98,0,6.38,2.01,6.38,5.33ZM379.64,88.49c0-2.19-1.46-3.43-4.26-3.43h-3.71v6.86h3.71c2.8,0,4.26-1.25,4.26-3.43Z"/>
          <path class="cls-1" d="M397.15,98.45l-3.3-4.7c-.31.02-.63.04-.96.04h-3.78v4.65h-2.19v-15.3h5.97c3.98,0,6.38,2.01,6.38,5.33,0,2.36-1.22,4.06-3.36,4.83l3.63,5.13h-2.38ZM397.08,88.49c0-2.19-1.46-3.43-4.26-3.43h-3.71v6.88h3.71c2.8,0,4.26-1.27,4.26-3.45Z"/>
          <path class="cls-1" d="M415.79,96.55v1.9h-11.1v-15.3h10.79v1.9h-8.61v4.7h7.67v1.86h-7.67v4.94h8.92Z"/>
          <path class="cls-1" d="M419.82,96.71l.81-1.7c1.14,1.03,3.08,1.77,5.05,1.77,2.64,0,3.78-1.03,3.78-2.36,0-3.74-9.26-1.38-9.26-7.06,0-2.36,1.83-4.37,5.86-4.37,1.79,0,3.65.48,4.92,1.36l-.72,1.75c-1.33-.85-2.84-1.25-4.2-1.25-2.6,0-3.71,1.09-3.71,2.43,0,3.74,9.26,1.4,9.26,7.01,0,2.34-1.88,4.35-5.92,4.35-2.34,0-4.63-.79-5.86-1.92Z"/>
          <path class="cls-1" d="M446.42,94.63h-8.13l-1.68,3.82h-2.25l6.93-15.3h2.16l6.95,15.3h-2.29l-1.68-3.82ZM445.65,92.88l-3.3-7.49-3.3,7.49h6.6Z"/>
          <path class="cls-1" d="M464.78,98.45l-3.3-4.7c-.31.02-.63.04-.96.04h-3.78v4.65h-2.19v-15.3h5.97c3.98,0,6.38,2.01,6.38,5.33,0,2.36-1.22,4.06-3.37,4.83l3.63,5.13h-2.38ZM464.71,88.49c0-2.19-1.46-3.43-4.26-3.43h-3.71v6.88h3.71c2.8,0,4.26-1.27,4.26-3.45Z"/>
          <path class="cls-1" d="M472.32,83.16h2.19v15.3h-2.19v-15.3Z"/>
          <path class="cls-1" d="M490.72,94.63h-8.13l-1.68,3.82h-2.25l6.93-15.3h2.16l6.95,15.3h-2.29l-1.68-3.82ZM489.96,92.88l-3.3-7.49-3.3,7.49h6.6Z"/>
          <path class="cls-1" d="M498.85,83.16h2.19v13.39h8.28v1.9h-10.47v-15.3Z"/>
        </g>
      </g>
    </g>
  </g>
</svg>